<!DOCTYPE svg PUBLIC "-//W3C//DTD SVG 1.1//EN" "http://www.w3.org/Graphics/SVG/1.1/DTD/svg11.dtd">
<!-- Uploaded to: SVG Repo, www.svgrepo.com, Transformed by: SVG Repo Mixer Tools -->
<svg fill="#ffffff" version="1.1" id="Layer_1" xmlns="http://www.w3.org/2000/svg" xmlns:xlink="http://www.w3.org/1999/xlink" viewBox="0 0 511.999 511.999" xml:space="preserve" width="800px" height="800px" stroke="#ffffff">
<g id="SVGRepo_bgCarrier" stroke-width="0"/>
<g id="SVGRepo_tracerCarrier" stroke-linecap="round" stroke-linejoin="round"/>
<g id="SVGRepo_iconCarrier"> <g> <g> <path d="M504.262,162.756l-43.618-29.079v41.76l24.344,16.229c2.963,1.975,6.31,2.92,9.622,2.92 c5.614,0,11.124-2.717,14.471-7.738C514.402,178.866,512.244,168.08,504.262,162.756z"/> </g> </g> <g> <g> <path d="M24.26,114.97L2.974,130.255c-3.762,2.701-3.068,6.409-2.596,7.877c0.473,1.469,2.072,4.884,6.704,4.884h272.131 c1.395,0.001,2.744-0.408,3.904-1.181l40.298-26.865H24.26z"/> </g> </g> <g> <g> <path d="M295.968,161.108c-4.976,3.32-10.77,5.074-16.755,5.074H32.115V397.02h316.614V125.934L295.968,161.108z"/> </g> </g> <g> <g> <rect x="371.9" y="114.974" width="65.583" height="282.055"/> </g> </g> </g>
</svg>