<!DOCTYPE svg PUBLIC "-//W3C//DTD SVG 1.1//EN" "http://www.w3.org/Graphics/SVG/1.1/DTD/svg11.dtd">
<!-- Uploaded to: SVG Repo, www.svgrepo.com, Transformed by: SVG Repo Mixer Tools -->
<svg fill="#ffffff" width="800px" height="800px" viewBox="0 0 24 24" role="img" xmlns="http://www.w3.org/2000/svg" stroke="#ffffff">
<g id="SVGRepo_bgCarrier" stroke-width="0"/>
<g id="SVGRepo_tracerCarrier" stroke-linecap="round" stroke-linejoin="round"/>
<g id="SVGRepo_iconCarrier">
<path d="M22.84 2.998v17.999a2.983 2.983 0 0 1-2.967 2.998 2.98 2.98 0 0 1-.368-.02 3.06 3.06 0 0 1-2.61-3.1V3.12A3.06 3.06 0 0 1 19.51.02a2.983 2.983 0 0 1 3.329 2.978zM4.133 18.055a2.973 2.973 0 1 0 0 5.945 2.973 2.973 0 0 0 0-5.945zm7.872-9.01h-.05a3.06 3.06 0 0 0-2.892 3.126v7.985c0 2.167.954 3.482 2.35 3.763a2.978 2.978 0 0 0 3.57-2.927v-8.959a2.983 2.983 0 0 0-2.978-2.988z"/>
</g>
</svg>