<?xml version="1.0" encoding="UTF-8" standalone="no"?>
<!-- Created with Inkscape (http://www.inkscape.org/) -->

<svg
   width="200"
   height="200"
   viewBox="0 0 200 200"
   version="1.1"
   id="svg1"
   inkscape:version="1.4.3 (0d15f75, 2025-12-25)"
   sodipodi:docname="Medal.svg"
   xmlns:inkscape="http://www.inkscape.org/namespaces/inkscape"
   xmlns:sodipodi="http://sodipodi.sourceforge.net/DTD/sodipodi-0.dtd"
   xmlns="http://www.w3.org/2000/svg"
   xmlns:svg="http://www.w3.org/2000/svg">
  <sodipodi:namedview
     id="namedview1"
     pagecolor="#505050"
     bordercolor="#ffffff"
     borderopacity="1"
     inkscape:showpageshadow="0"
     inkscape:pageopacity="0"
     inkscape:pagecheckerboard="1"
     inkscape:deskcolor="#505050"
     inkscape:document-units="px"
     inkscape:zoom="4"
     inkscape:cx="-189.25"
     inkscape:cy="118.875"
     inkscape:window-width="5120"
     inkscape:window-height="1369"
     inkscape:window-x="-8"
     inkscape:window-y="-8"
     inkscape:window-maximized="1"
     inkscape:current-layer="layer1" />
  <defs
     id="defs1">
    <inkscape:path-effect
       effect="fillet_chamfer"
       id="path-effect93"
       is_visible="true"
       lpeversion="1"
       nodesatellites_param="F,0,0,1,0,11.215053,0,1 @ F,0,0,1,0,11.374152,0,1 @ F,0,0,1,0,0,0,1 @ F,0,0,1,0,0,0,1"
       radius="0"
       unit="px"
       method="auto"
       mode="F"
       chamfer_steps="1"
       flexible="false"
       use_knot_distance="true"
       apply_no_radius="true"
       apply_with_radius="true"
       only_selected="false"
       hide_knots="false" />
    <inkscape:perspective
       sodipodi:type="inkscape:persp3d"
       inkscape:vp_x="-4.7063797 : 116.65149 : 1"
       inkscape:vp_y="0 : 2039.3 : 0"
       inkscape:vp_z="349.47036 : 155.94345 : 1"
       inkscape:persp3d-origin="172.63869 : 106.89306 : 1"
       id="perspective42" />
    <inkscape:path-effect
       effect="fillet_chamfer"
       id="path-effect28"
       is_visible="true"
       lpeversion="1"
       nodesatellites_param="F,0,0,1,0,13.39086,0,1 @ F,0,0,1,0,13.64086,0,1 @ F,0,0,1,0,13.39086,0,1 @ F,0,0,1,0,13.14086,0,1"
       radius="10.14086"
       unit="px"
       method="auto"
       mode="F"
       chamfer_steps="1"
       flexible="false"
       use_knot_distance="true"
       apply_no_radius="true"
       apply_with_radius="true"
       only_selected="false"
       hide_knots="false" />
    <inkscape:path-effect
       effect="fillet_chamfer"
       id="path-effect27"
       is_visible="true"
       lpeversion="1"
       nodesatellites_param="F,0,0,1,0,0,0,1 @ F,0,0,1,0,0,0,1 @ F,0,0,1,0,7.8040285,0,1 @ F,0,0,1,0,4.5487172,0,1"
       radius="0"
       unit="px"
       method="auto"
       mode="F"
       chamfer_steps="1"
       flexible="false"
       use_knot_distance="true"
       apply_no_radius="true"
       apply_with_radius="true"
       only_selected="false"
       hide_knots="false" />
    <inkscape:path-effect
       effect="fillet_chamfer"
       id="path-effect26"
       is_visible="true"
       lpeversion="1"
       nodesatellites_param="F,0,0,1,0,0,0,1 @ F,0,0,1,0,10.370335,0,1 @ F,0,0,1,0,0,0,1 @ F,0,0,1,0,0,0,1"
       radius="0"
       unit="px"
       method="auto"
       mode="F"
       chamfer_steps="1"
       flexible="false"
       use_knot_distance="true"
       apply_no_radius="true"
       apply_with_radius="true"
       only_selected="false"
       hide_knots="false" />
  </defs>
  <g
     inkscape:label="Layer 1"
     inkscape:groupmode="layer"
     id="layer1">
    <ellipse
       style="opacity:1;fill:#d4aa00;stroke:none;stroke-width:0.5;stroke-dasharray:none"
       id="path70"
       cx="100"
       cy="100"
       inkscape:label="Circle-gold"
       rx="79.195961"
       ry="79.195999" />
    <ellipse
       style="opacity:1;fill:none;stroke:#786721;stroke-width:13.578;stroke-dasharray:none"
       id="ellipse97"
       cx="100"
       cy="100"
       inkscape:label="Circle-Dark"
       rx="77.608864"
       ry="77.60891" />
    <ellipse
       style="opacity:1;fill:none;stroke:#ffcc00;stroke-width:9.95524;stroke-dasharray:none"
       id="ellipse96"
       cx="100"
       cy="100"
       inkscape:label="Circle-inner"
       rx="78.433022"
       ry="78.433075" />
    <path
       style="opacity:1;fill:none;stroke:#786721;stroke-width:9.95524;stroke-dasharray:none"
       id="ellipse99"
       inkscape:label="Circle-inner"
       sodipodi:type="arc"
       sodipodi:cx="100"
       sodipodi:cy="100"
       sodipodi:rx="78.433022"
       sodipodi:ry="78.433075"
       sodipodi:start="5.2464597"
       sodipodi:end="4.1887902"
       sodipodi:arc-type="arc"
       d="M 139.92565,32.489355 A 78.433022,78.433075 0 0 1 175.59871,120.89436 78.433022,78.433075 0 0 1 99.589329,178.432 78.433022,78.433075 0 0 1 24.186634,120.10156 78.433022,78.433075 0 0 1 60.783489,32.074965"
       sodipodi:open="true" />
    <g
       id="g93">
      <path
         id="path71"
         style="opacity:1;fill:#d4aa00;stroke:#000000;stroke-width:0.5;stroke-dasharray:none"
         d="m 50.051225,145.50917 a 14.117016,7.2714202 68.570821 0 0 1.825459,13.74262 14.672465,9.3867166 19.373204 0 0 -1.360571,-0.52836 14.672465,9.3867166 19.373204 0 0 -8.975351,-1.13726 14.672465,9.3867166 19.373204 0 0 -5.620254,2.03511 14.672465,9.3867166 19.373204 0 0 10.865571,9.97104 14.672465,9.3867166 19.373204 0 0 14.59579,-0.8959 14.672465,9.3867166 19.373204 0 0 -0.0377,-0.14946 14.117016,7.2714202 68.570821 0 0 0.163782,0.01 14.117016,7.2714202 68.570821 0 0 -2.215103,-14.56305 14.117016,7.2714202 68.570821 0 0 -9.241623,-8.48473 z" />
      <path
         id="path72"
         style="opacity:1;fill:#d4aa00;stroke:#000000;stroke-width:0.5;stroke-dasharray:none"
         d="m 40.516831,133.6512 a 14.117016,7.2714202 73.016442 0 0 0.754736,13.84277 14.672465,9.3867166 23.818825 0 0 -1.315523,-0.63223 14.672465,9.3867166 23.818825 0 0 -8.860195,-1.82955 14.672465,9.3867166 23.818825 0 0 -5.761092,1.59335 14.672465,9.3867166 23.818825 0 0 10.059997,10.78326 14.672465,9.3867166 23.818825 0 0 14.62132,0.23816 14.672465,9.3867166 23.818825 0 0 -0.026,-0.15194 14.117016,7.2714202 73.016442 0 0 0.162514,0.0227 14.117016,7.2714202 73.016442 0 0 -1.079614,-14.69093 14.117016,7.2714202 73.016442 0 0 -8.556142,-9.17555 z" />
      <path
         id="path73"
         style="opacity:1;fill:#d4aa00;stroke:#000000;stroke-width:0.5;stroke-dasharray:none"
         d="m 33.43229,121.14215 a 14.117016,7.2714202 82.642554 0 0 -1.570652,13.77407 14.672465,9.3867166 33.444937 0 0 -1.19128,-0.84331 14.672465,9.3867166 33.444937 0 0 -8.429509,-3.28537 14.672465,9.3867166 33.444937 0 0 -5.946413,0.60755 14.672465,9.3867166 33.444937 0 0 8.115196,12.31365 14.672465,9.3867166 33.444937 0 0 14.375626,2.67975 14.672465,9.3867166 33.444937 0 0 -2.27e-4,-0.15414 14.117016,7.2714202 82.642554 0 0 0.15643,0.0496 14.117016,7.2714202 82.642554 0 0 1.392176,-14.66461 14.117016,7.2714202 82.642554 0 0 -6.901353,-10.4771 z" />
      <path
         id="path74"
         style="opacity:1;fill:#d4aa00;stroke:#000000;stroke-width:0.5;stroke-dasharray:none"
         d="m 30.75375,107.35066 a 7.2714202,14.117016 5.642179 0 0 -4.628802,13.06776 14.672465,9.3867166 46.444562 0 0 -0.971052,-1.08967 14.672465,9.3867166 46.444562 0 0 -7.474447,-5.09735 14.672465,9.3867166 46.444562 0 0 -5.930681,-0.74563 14.672465,9.3867166 46.444562 0 0 5.137326,13.82354 14.672465,9.3867166 46.444562 0 0 13.404406,5.84479 14.672465,9.3867166 46.444562 0 0 0.03445,-0.15024 7.2714202,14.117016 5.642179 0 0 0.141263,0.0835 7.2714202,14.117016 5.642179 0 0 4.655223,-13.97562 7.2714202,14.117016 5.642179 0 0 -4.367714,-11.76101 z" />
      <path
         id="path75"
         style="opacity:1;fill:#d4aa00;stroke:#000000;stroke-width:0.5;stroke-dasharray:none"
         d="m 29.130407,92.522535 a 7.2714202,14.117016 14.341894 0 0 -6.552121,12.217275 14.672465,9.3867166 55.144277 0 0 -0.795061,-1.22401 14.672465,9.3867166 55.144277 0 0 -6.617447,-6.169256 14.672465,9.3867166 55.144277 0 0 -5.7496653,-1.634101 14.672465,9.3867166 55.144277 0 0 2.9873273,14.441547 14.672465,9.3867166 55.144277 0 0 12.366124,7.80504 14.672465,9.3867166 55.144277 0 0 0.05678,-0.14331 7.2714202,14.117016 14.341894 0 0 0.127008,0.1039 7.2714202,14.117016 14.341894 0 0 6.715557,-13.11068 7.2714202,14.117016 14.341894 0 0 -2.538538,-12.286351 z" />
      <path
         id="path76"
         style="opacity:1;fill:#d4aa00;stroke:#000000;stroke-width:0.5;stroke-dasharray:none"
         d="M 32.035942,78.529448 A 7.2714202,14.117016 28.380123 0 0 22.715971,88.7925 14.672465,9.3867166 69.182506 0 0 22.241563,87.412189 14.672465,9.3867166 69.182506 0 0 17.318224,79.821994 14.672465,9.3867166 69.182506 0 0 12.13666,76.842005 a 14.672465,9.3867166 69.182506 0 0 -0.604967,14.734871 14.672465,9.3867166 69.182506 0 0 10.103536,10.571584 14.672465,9.3867166 69.182506 0 0 0.08984,-0.12526 7.2714202,14.117016 28.380123 0 0 0.09801,0.1316 7.2714202,14.117016 28.380123 0 0 9.695238,-11.090129 7.2714202,14.117016 28.380123 0 0 0.517569,-12.535179 z" />
      <path
         id="path77"
         style="opacity:1;fill:#d4aa00;stroke:#000000;stroke-width:0.468035;stroke-dasharray:none"
         d="m 47.016128,56.017569 a 6.8065637,13.214526 50.153825 0 0 -11.665352,5.685395 8.7866307,13.734465 0.95620822 0 0 0.06688,-1.364615 8.7866307,13.734465 0.95620822 0 0 -1.644274,-8.307584 8.7866307,13.734465 0.95620822 0 0 -3.469536,-4.389651 8.7866307,13.734465 0.95620822 0 0 -5.642245,12.598784 8.7866307,13.734465 0.95620822 0 0 5.112136,12.697974 8.7866307,13.734465 0.95620822 0 0 0.121591,-0.07769 6.8065637,13.214526 50.153825 0 0 0.03951,0.14843 6.8065637,13.214526 50.153825 0 0 12.27875,-6.274057 6.8065637,13.214526 50.153825 0 0 4.802478,-10.716966 z" />
      <path
         id="path78"
         style="opacity:1;fill:#d4aa00;stroke:#000000;stroke-width:0.41477;stroke-dasharray:none"
         d="m 52.854875,46.366308 a 6.0319284,11.710619 55.150367 0 0 -10.737288,4.118838 7.7866498,12.171385 5.9527504 0 0 0.164373,-1.199555 7.7866498,12.171385 5.9527504 0 0 -0.810397,-7.461055 7.7866498,12.171385 5.9527504 0 0 -2.724186,-4.143086 7.7866498,12.171385 5.9527504 0 0 -5.953535,10.687037 7.7866498,12.171385 5.9527504 0 0 3.533049,11.604666 7.7866498,12.171385 5.9527504 0 0 0.11334,-0.0592 6.0319284,11.710619 55.150367 0 0 0.02342,0.134088 6.0319284,11.710619 55.150367 0 0 11.324246,-4.591179 6.0319284,11.710619 55.150367 0 0 5.066922,-9.090537 z" />
      <path
         id="path79"
         style="opacity:1;fill:#d4aa00;stroke:#000000;stroke-width:0.384395;stroke-dasharray:none"
         d="m 60.284576,40.757532 a 5.5901925,10.853016 71.162549 0 0 -10.617842,0.924216 7.2164105,11.280039 21.964933 0 0 0.453081,-1.026556 7.2164105,11.280039 21.964933 0 0 1.185441,-6.853564 7.2164105,11.280039 21.964933 0 0 -1.367593,-4.387121 7.2164105,11.280039 21.964933 0 0 -8.035522,7.998166 7.2164105,11.280039 21.964933 0 0 0.180652,11.24076 7.2164105,11.280039 21.964933 0 0 0.116099,-0.02376 5.5901925,10.853016 71.162549 0 0 -0.01341,0.125434 5.5901925,10.853016 71.162549 0 0 11.26146,-1.194933 5.5901925,10.853016 71.162549 0 0 6.837586,-6.80264 z" />
      <path
         id="path80"
         style="opacity:1;fill:#d4aa00;stroke:#000000;stroke-width:0.35957;stroke-dasharray:none"
         d="m 68.108384,35.719632 a 5.2291723,10.152117 80.926759 0 0 -9.934874,-0.832423 6.7503675,10.551563 31.729143 0 0 0.580535,-0.874473 6.7503675,10.551563 31.729143 0 0 2.18008,-6.130024 6.7503675,10.551563 31.729143 0 0 -0.564762,-4.261307 6.7503675,10.551563 31.729143 0 0 -8.676535,6.098491 6.7503675,10.551563 31.729143 0 0 -1.616712,10.391162 6.7503675,10.551563 31.729143 0 0 0.110797,-0.0035 5.2291723,10.152117 80.926759 0 0 -0.03227,0.113504 5.2291723,10.152117 80.926759 0 0 10.571151,0.684963 5.2291723,10.152117 80.926759 0 0 7.382536,-5.186416 z" />
      <path
         id="path81"
         style="opacity:1;fill:#d4aa00;stroke:#000000;stroke-width:0.5;stroke-dasharray:none"
         d="m 39.818658,68.629581 a 7.2714202,14.117016 50.153825 0 0 -12.462042,6.073681 9.3867166,14.672465 0.95620822 0 0 0.07145,-1.457812 9.3867166,14.672465 0.95620822 0 0 -1.75657,-8.874953 9.3867166,14.672465 0.95620822 0 0 -3.706489,-4.689443 9.3867166,14.672465 0.95620822 0 0 -6.027584,13.459222 9.3867166,14.672465 0.95620822 0 0 5.461271,13.565186 9.3867166,14.672465 0.95620822 0 0 0.129895,-0.083 7.2714202,14.117016 50.153825 0 0 0.04221,0.158567 7.2714202,14.117016 50.153825 0 0 13.117332,-6.702546 7.2714202,14.117016 50.153825 0 0 5.130464,-11.448884 z" />
    </g>
    <g
       id="g92">
      <path
         id="path82"
         style="opacity:1;fill:#d4aa00;stroke:#000000;stroke-width:0.5;stroke-dasharray:none"
         d="m 149.91042,147.27694 a 7.2714202,14.117016 21.429179 0 1 -1.82546,13.74262 9.3867166,14.672465 70.626796 0 1 1.36057,-0.52836 9.3867166,14.672465 70.626796 0 1 8.97535,-1.13726 9.3867166,14.672465 70.626796 0 1 5.62026,2.03511 9.3867166,14.672465 70.626796 0 1 -10.86557,9.97104 9.3867166,14.672465 70.626796 0 1 -14.59579,-0.8959 9.3867166,14.672465 70.626796 0 1 0.0377,-0.14946 7.2714202,14.117016 21.429179 0 1 -0.16379,0.01 7.2714202,14.117016 21.429179 0 1 2.21511,-14.56305 7.2714202,14.117016 21.429179 0 1 9.24162,-8.48473 z" />
      <path
         id="path83"
         style="opacity:1;fill:#d4aa00;stroke:#000000;stroke-width:0.5;stroke-dasharray:none"
         d="m 160.15192,135.24219 a 7.2714202,14.117016 16.983558 0 1 -0.75473,13.84277 9.3867166,14.672465 66.181175 0 1 1.31552,-0.63223 9.3867166,14.672465 66.181175 0 1 8.86019,-1.82955 9.3867166,14.672465 66.181175 0 1 5.7611,1.59335 9.3867166,14.672465 66.181175 0 1 -10.06,10.78326 9.3867166,14.672465 66.181175 0 1 -14.62132,0.23816 9.3867166,14.672465 66.181175 0 1 0.026,-0.15194 7.2714202,14.117016 16.983558 0 1 -0.16252,0.0227 7.2714202,14.117016 16.983558 0 1 1.07962,-14.69093 7.2714202,14.117016 16.983558 0 1 8.55614,-9.17555 z" />
      <path
         id="path84"
         style="opacity:1;fill:#d4aa00;stroke:#000000;stroke-width:0.5;stroke-dasharray:none"
         d="m 167.23646,123.7938 a 7.2714202,14.117016 7.357446 0 1 1.57065,13.77407 9.3867166,14.672465 56.555063 0 1 1.19128,-0.84331 9.3867166,14.672465 56.555063 0 1 8.42951,-3.28537 9.3867166,14.672465 56.555063 0 1 5.94642,0.60755 9.3867166,14.672465 56.555063 0 1 -8.1152,12.31365 9.3867166,14.672465 56.555063 0 1 -14.37563,2.67975 9.3867166,14.672465 56.555063 0 1 2.3e-4,-0.15414 7.2714202,14.117016 7.357446 0 1 -0.15643,0.0496 7.2714202,14.117016 7.357446 0 1 -1.39217,-14.66461 7.2714202,14.117016 7.357446 0 1 6.90135,-10.4771 z" />
      <path
         id="path85"
         style="opacity:1;fill:#d4aa00;stroke:#000000;stroke-width:0.5;stroke-dasharray:none"
         d="m 169.91501,109.47198 a 14.117016,7.2714202 84.357821 0 1 4.6288,13.06776 9.3867166,14.672465 43.555438 0 1 0.97105,-1.08967 9.3867166,14.672465 43.555438 0 1 7.47445,-5.09735 9.3867166,14.672465 43.555438 0 1 5.93068,-0.74563 9.3867166,14.672465 43.555438 0 1 -5.13733,13.82354 9.3867166,14.672465 43.555438 0 1 -13.4044,5.84479 9.3867166,14.672465 43.555438 0 1 -0.0344,-0.15024 14.117016,7.2714202 84.357821 0 1 -0.14127,0.0835 14.117016,7.2714202 84.357821 0 1 -4.65522,-13.97562 14.117016,7.2714202 84.357821 0 1 4.36771,-11.76101 z" />
      <path
         id="path86"
         style="opacity:1;fill:#d4aa00;stroke:#000000;stroke-width:0.5;stroke-dasharray:none"
         d="m 170.30092,94.820632 a 14.117016,7.2714202 75.658106 0 1 6.55212,12.217278 9.3867166,14.672465 34.855723 0 1 0.79506,-1.22401 9.3867166,14.672465 34.855723 0 1 6.61745,-6.169259 9.3867166,14.672465 34.855723 0 1 5.74966,-1.634101 9.3867166,14.672465 34.855723 0 1 -2.98733,14.44155 9.3867166,14.672465 34.855723 0 1 -12.36612,7.80504 9.3867166,14.672465 34.855723 0 1 -0.0568,-0.14331 14.117016,7.2714202 75.658106 0 1 -0.12701,0.1039 14.117016,7.2714202 75.658106 0 1 -6.71556,-13.11068 14.117016,7.2714202 75.658106 0 1 2.53854,-12.286354 z" />
      <path
         id="path87"
         style="opacity:1;fill:#d4aa00;stroke:#000000;stroke-width:0.5;stroke-dasharray:none"
         d="m 166.33472,81.181098 a 14.117016,7.2714202 61.619877 0 1 9.31997,10.263052 9.3867166,14.672465 20.817494 0 1 0.47441,-1.380311 9.3867166,14.672465 20.817494 0 1 4.92334,-7.590195 9.3867166,14.672465 20.817494 0 1 5.18156,-2.979989 9.3867166,14.672465 20.817494 0 1 0.60497,14.734871 9.3867166,14.672465 20.817494 0 1 -10.10354,10.571584 9.3867166,14.672465 20.817494 0 1 -0.0898,-0.12526 14.117016,7.2714202 61.619877 0 1 -0.098,0.1316 14.117016,7.2714202 61.619877 0 1 -9.69523,-11.090129 14.117016,7.2714202 61.619877 0 1 -0.51757,-12.535179 z" />
      <path
         id="path88"
         style="opacity:1;fill:#d4aa00;stroke:#000000;stroke-width:0.464027;stroke-dasharray:none"
         d="m 154.27793,59.05947 a 13.101366,6.7482773 39.846175 0 1 11.56547,5.63671 13.616853,8.7113886 89.043792 0 1 -0.0663,-1.35293 13.616853,8.7113886 89.043792 0 1 1.63019,-8.236444 13.616853,8.7113886 89.043792 0 1 3.43982,-4.35206 13.616853,8.7113886 89.043792 0 1 5.59393,12.490897 13.616853,8.7113886 89.043792 0 1 -5.06836,12.589238 13.616853,8.7113886 89.043792 0 1 -0.12055,-0.07703 13.101366,6.7482773 39.846175 0 1 -0.0392,0.147159 13.101366,6.7482773 39.846175 0 1 -12.1736,-6.220331 13.101366,6.7482773 39.846175 0 1 -4.76135,-10.625193 z" />
      <path
         id="path89"
         style="opacity:1;fill:#d4aa00;stroke:#000000;stroke-width:0.41477;stroke-dasharray:none"
         d="m 148.52098,49.017958 a 11.710619,6.0319284 34.849633 0 1 10.73729,4.118838 12.171385,7.7866498 84.04725 0 1 -0.16437,-1.199555 12.171385,7.7866498 84.04725 0 1 0.8104,-7.461055 12.171385,7.7866498 84.04725 0 1 2.72418,-4.143086 12.171385,7.7866498 84.04725 0 1 5.95354,10.687037 12.171385,7.7866498 84.04725 0 1 -3.53305,11.604666 12.171385,7.7866498 84.04725 0 1 -0.11334,-0.0592 11.710619,6.0319284 34.849633 0 1 -0.0234,0.134088 11.710619,6.0319284 34.849633 0 1 -11.32425,-4.591179 11.710619,6.0319284 34.849633 0 1 -5.06692,-9.090537 z" />
      <path
         id="path90"
         style="opacity:1;fill:#d4aa00;stroke:#000000;stroke-width:0.384395;stroke-dasharray:none"
         d="m 141.26806,42.702075 a 10.853016,5.5901925 18.837451 0 1 10.61784,0.924216 11.280039,7.2164105 68.035067 0 1 -0.45308,-1.026556 11.280039,7.2164105 68.035067 0 1 -1.18544,-6.853564 11.280039,7.2164105 68.035067 0 1 1.36759,-4.387121 11.280039,7.2164105 68.035067 0 1 8.03553,7.998166 11.280039,7.2164105 68.035067 0 1 -0.18066,11.24076 11.280039,7.2164105 68.035067 0 1 -0.1161,-0.02376 10.853016,5.5901925 18.837451 0 1 0.0134,0.125434 10.853016,5.5901925 18.837451 0 1 -11.26146,-1.194933 10.853016,5.5901925 18.837451 0 1 -6.83758,-6.80264 z" />
      <path
         id="path91"
         style="opacity:1;fill:#d4aa00;stroke:#000000;stroke-width:0.35957;stroke-dasharray:none"
         d="m 132.29781,36.987399 a 10.152117,5.2291723 9.073241 0 1 9.93488,-0.832423 10.551563,6.7503675 58.270857 0 1 -0.58054,-0.874473 10.551563,6.7503675 58.270857 0 1 -2.18008,-6.130024 10.551563,6.7503675 58.270857 0 1 0.56476,-4.261307 10.551563,6.7503675 58.270857 0 1 8.67654,6.098491 10.551563,6.7503675 58.270857 0 1 1.61671,10.391162 10.551563,6.7503675 58.270857 0 1 -0.1108,-0.0035 10.152117,5.2291723 9.073241 0 1 0.0323,0.113504 10.152117,5.2291723 9.073241 0 1 -10.57115,0.684963 10.152117,5.2291723 9.073241 0 1 -7.38253,-5.186416 z" />
      <path
         id="path92"
         style="opacity:1;fill:#d4aa00;stroke:#000000;stroke-width:0.5;stroke-dasharray:none"
         d="m 160.143,71.988339 a 14.117016,7.2714202 39.846175 0 1 12.46204,6.073681 14.672465,9.3867166 89.043792 0 1 -0.0714,-1.457812 14.672465,9.3867166 89.043792 0 1 1.75657,-8.874953 14.672465,9.3867166 89.043792 0 1 3.70649,-4.689443 14.672465,9.3867166 89.043792 0 1 6.02758,13.459222 14.672465,9.3867166 89.043792 0 1 -5.46127,13.565186 14.672465,9.3867166 89.043792 0 1 -0.1299,-0.083 14.117016,7.2714202 39.846175 0 1 -0.0422,0.158567 14.117016,7.2714202 39.846175 0 1 -13.11733,-6.702546 14.117016,7.2714202 39.846175 0 1 -5.13046,-11.448884 z" />
    </g>
    <path
       id="path93"
       style="opacity:1;fill:#ffe680;stroke:#000000;stroke-width:0.779454;stroke-dasharray:none"
       d="M 58.298828 174.39844 A 79.195961 79.195999 0 0 0 100 186.26758 A 79.195961 79.195999 0 0 0 142.16602 174.10938 L 142.16602 154.87891 A 11.374152 11.374152 0 0 0 130.79102 143.50586 L 69.513672 143.50586 A 11.215053 11.215053 0 0 0 58.298828 154.7207 L 58.298828 174.39844 z " />
    <path
       id="path94"
       style="opacity:1;fill:#d4aa00;stroke:#000000;stroke-width:0.4;stroke-dasharray:none"
       d="m 59.51563,173.42675 a 76.730973,73.313364 0 0 0 40.403211,10.9875 76.730973,73.313364 0 0 0 40.853589,-11.25511 V 155.35712 A 11.02013,10.529286 0 0 0 129.75149,144.82885 H 70.38141 a 10.865982,10.382004 0 0 0 -10.86578,10.38181 z" />
    <text
       xml:space="preserve"
       style="font-style:normal;font-variant:normal;font-weight:bold;font-stretch:normal;font-size:33.3333px;font-family:Arial;-inkscape-font-specification:'Arial, Bold';font-variant-ligatures:normal;font-variant-caps:normal;font-variant-numeric:normal;font-variant-east-asian:normal;text-align:center;writing-mode:lr-tb;direction:ltr;text-anchor:middle;opacity:1;fill:#502d16;stroke:none;stroke-width:0.398891;stroke-dasharray:none"
       x="99.518318"
       y="91.18071"
       id="text94"
       transform="scale(1.0027901,0.99721766)"><tspan
         sodipodi:role="line"
         id="tspan95"
         x="99.518318"
         y="91.18071"
         style="fill:#28170b">Top</tspan><tspan
         sodipodi:role="line"
         id="tspan96"
         x="99.518318"
         y="132.84734"
         style="fill:#28170b">Vendor</tspan></text>
    <path
       id="path98"
       style="opacity:1;fill:#aa8800;stroke:none;stroke-width:0.466044;stroke-dasharray:none"
       d="M 84.865234 16.263672 A 79.195961 79.195999 0 0 0 67.072266 21.972656 C 67.023277 22.301116 66.998047 22.637947 66.998047 22.980469 L 66.998047 35.001953 C 66.998047 38.723456 69.995294 41.71875 73.716797 41.71875 L 127.63281 41.71875 C 131.35432 41.71875 134.34961 38.723456 134.34961 35.001953 L 134.34961 22.980469 C 134.34961 22.865155 134.34748 22.750572 134.3418 22.636719 A 79.195961 79.195999 0 0 0 115.13477 16.263672 L 84.865234 16.263672 z " />
    <path
       id="path99"
       style="opacity:1;fill:#d4aa00;stroke:#ffd42a;stroke-width:1;stroke-dasharray:none"
       d="m 85.614477,17.256799 a 75.129389,72.238553 0 0 0 -16.879331,5.207444 c -0.04648,0.299605 -0.0704,0.606844 -0.0704,0.919275 v 10.965386 c 0,3.394564 2.843344,6.126719 6.373753,6.126719 h 51.147511 c 3.53043,0 6.37191,-2.732155 6.37191,-6.126719 V 23.383518 c 0,-0.105183 -0.002,-0.209699 -0.007,-0.313551 a 75.129389,72.238553 0 0 0 -18.22077,-5.813168 z" />
    <text
       xml:space="preserve"
       style="font-style:normal;font-variant:normal;font-weight:bold;font-stretch:normal;font-size:33.3333px;font-family:Arial;-inkscape-font-specification:'Arial, Bold';font-variant-ligatures:normal;font-variant-caps:normal;font-variant-numeric:normal;font-variant-east-asian:normal;writing-mode:lr-tb;direction:ltr;opacity:1;fill:#28220b;stroke:none;stroke-width:2.3;stroke-dasharray:none"
       x="61.508675"
       y="172.13196"
       id="text99"><tspan
         sodipodi:role="line"
         id="tspan99"
         style="font-style:normal;font-variant:normal;font-weight:bold;font-stretch:normal;font-size:21.3333px;font-family:Arial;-inkscape-font-specification:'Arial, Bold';font-variant-ligatures:normal;font-variant-caps:normal;font-variant-numeric:normal;font-variant-east-asian:normal"
         x="61.508675"
         y="172.13196">Ranked</tspan></text>
    <text
       xml:space="preserve"
       style="font-style:normal;font-variant:normal;font-weight:bold;font-stretch:normal;font-size:21.3333px;font-family:Arial;-inkscape-font-specification:'Arial, Bold';font-variant-ligatures:normal;font-variant-caps:normal;font-variant-numeric:normal;font-variant-east-asian:normal;writing-mode:lr-tb;direction:ltr;opacity:1;fill:#28220b;stroke:none;stroke-width:2.3;stroke-dasharray:none"
       x="87.423851"
       y="36.501617"
       id="text100"><tspan
         sodipodi:role="line"
         id="tspan100"
         x="87.423851"
         y="36.501617"># 1</tspan></text>
  </g>
</svg>
